<svg id="visual" viewBox="0 0 900 600" width="900" height="600" xmlns="http://www.w3.org/2000/svg" xmlns:xlink="http://www.w3.org/1999/xlink" version="1.1"><rect x="0" y="0" width="900" height="600" fill="#001220"></rect><path d="M0 134L11.5 128.3C23 122.7 46 111.3 69 113.8C92 116.3 115 132.7 138.2 136.3C161.3 140 184.7 131 207.8 124C231 117 254 112 277 118.3C300 124.7 323 142.3 346 143.5C369 144.7 392 129.3 415.2 128.2C438.3 127 461.7 140 484.8 141.2C508 142.3 531 131.7 554 133.3C577 135 600 149 623 146.3C646 143.7 669 124.3 692.2 119.5C715.3 114.7 738.7 124.3 761.8 134.3C785 144.3 808 154.7 831 152.7C854 150.7 877 136.3 888.5 129.2L900 122L900 601L888.5 601C877 601 854 601 831 601C808 601 785 601 761.8 601C738.7 601 715.3 601 692.2 601C669 601 646 601 623 601C600 601 577 601 554 601C531 601 508 601 484.8 601C461.7 601 438.3 601 415.2 601C392 601 369 601 346 601C323 601 300 601 277 601C254 601 231 601 207.8 601C184.7 601 161.3 601 138.2 601C115 601 92 601 69 601C46 601 23 601 11.5 601L0 601Z" fill="#38405f"></path><path d="M0 215L11.5 220C23 225 46 235 69 229.3C92 223.7 115 202.3 138.2 195.7C161.3 189 184.7 197 207.8 199.3C231 201.7 254 198.3 277 203.3C300 208.3 323 221.7 346 226.3C369 231 392 227 415.2 231C438.3 235 461.7 247 484.8 249.2C508 251.3 531 243.7 554 231.3C577 219 600 202 623 199.5C646 197 669 209 692.2 213.5C715.3 218 738.7 215 761.8 215.5C785 216 808 220 831 214.3C854 208.7 877 193.3 888.5 185.7L900 178L900 601L888.5 601C877 601 854 601 831 601C808 601 785 601 761.8 601C738.7 601 715.3 601 692.2 601C669 601 646 601 623 601C600 601 577 601 554 601C531 601 508 601 484.8 601C461.7 601 438.3 601 415.2 601C392 601 369 601 346 601C323 601 300 601 277 601C254 601 231 601 207.8 601C184.7 601 161.3 601 138.2 601C115 601 92 601 69 601C46 601 23 601 11.5 601L0 601Z" fill="#57437a"></path><path d="M0 315L11.5 315.7C23 316.3 46 317.7 69 317C92 316.3 115 313.7 138.2 315.3C161.3 317 184.7 323 207.8 312C231 301 254 273 277 267.3C300 261.7 323 278.3 346 285.7C369 293 392 291 415.2 292.2C438.3 293.3 461.7 297.7 484.8 291.8C508 286 531 270 554 268C577 266 600 278 623 284.3C646 290.7 669 291.3 692.2 291.7C715.3 292 738.7 292 761.8 287C785 282 808 272 831 276.7C854 281.3 877 300.7 888.5 310.3L900 320L900 601L888.5 601C877 601 854 601 831 601C808 601 785 601 761.8 601C738.7 601 715.3 601 692.2 601C669 601 646 601 623 601C600 601 577 601 554 601C531 601 508 601 484.8 601C461.7 601 438.3 601 415.2 601C392 601 369 601 346 601C323 601 300 601 277 601C254 601 231 601 207.8 601C184.7 601 161.3 601 138.2 601C115 601 92 601 69 601C46 601 23 601 11.5 601L0 601Z" fill="#863d85"></path><path d="M0 362L11.5 360.7C23 359.3 46 356.7 69 353.2C92 349.7 115 345.3 138.2 354C161.3 362.7 184.7 384.3 207.8 383.8C231 383.3 254 360.7 277 353.3C300 346 323 354 346 354.5C369 355 392 348 415.2 342.7C438.3 337.3 461.7 333.7 484.8 338C508 342.3 531 354.7 554 367.8C577 381 600 395 623 390.7C646 386.3 669 363.7 692.2 358.5C715.3 353.3 738.7 365.7 761.8 367C785 368.3 808 358.7 831 359.2C854 359.7 877 370.3 888.5 375.7L900 381L900 601L888.5 601C877 601 854 601 831 601C808 601 785 601 761.8 601C738.7 601 715.3 601 692.2 601C669 601 646 601 623 601C600 601 577 601 554 601C531 601 508 601 484.8 601C461.7 601 438.3 601 415.2 601C392 601 369 601 346 601C323 601 300 601 277 601C254 601 231 601 207.8 601C184.7 601 161.3 601 138.2 601C115 601 92 601 69 601C46 601 23 601 11.5 601L0 601Z" fill="#b9287d"></path><path d="M0 464L11.5 461.5C23 459 46 454 69 456.3C92 458.7 115 468.3 138.2 474C161.3 479.7 184.7 481.3 207.8 476.8C231 472.3 254 461.7 277 457C300 452.3 323 453.7 346 445.5C369 437.3 392 419.7 415.2 416.7C438.3 413.7 461.7 425.3 484.8 427.8C508 430.3 531 423.7 554 425.3C577 427 600 437 623 439.8C646 442.7 669 438.3 692.2 444.5C715.3 450.7 738.7 467.3 761.8 472.7C785 478 808 472 831 471C854 470 877 474 888.5 476L900 478L900 601L888.5 601C877 601 854 601 831 601C808 601 785 601 761.8 601C738.7 601 715.3 601 692.2 601C669 601 646 601 623 601C600 601 577 601 554 601C531 601 508 601 484.8 601C461.7 601 438.3 601 415.2 601C392 601 369 601 346 601C323 601 300 601 277 601C254 601 231 601 207.8 601C184.7 601 161.3 601 138.2 601C115 601 92 601 69 601C46 601 23 601 11.5 601L0 601Z" fill="#e40062"></path><path d="M0 561L11.5 561.3C23 561.7 46 562.3 69 548.5C92 534.7 115 506.3 138.2 494.5C161.3 482.7 184.7 487.3 207.8 499.2C231 511 254 530 277 530.5C300 531 323 513 346 509C369 505 392 515 415.2 516.2C438.3 517.3 461.7 509.7 484.8 516C508 522.3 531 542.7 554 541.2C577 539.7 600 516.3 623 506.2C646 496 669 499 692.2 504C715.3 509 738.7 516 761.8 518.5C785 521 808 519 831 519.2C854 519.3 877 521.7 888.5 522.8L900 524L900 601L888.5 601C877 601 854 601 831 601C808 601 785 601 761.8 601C738.7 601 715.3 601 692.2 601C669 601 646 601 623 601C600 601 577 601 554 601C531 601 508 601 484.8 601C461.7 601 438.3 601 415.2 601C392 601 369 601 346 601C323 601 300 601 277 601C254 601 231 601 207.8 601C184.7 601 161.3 601 138.2 601C115 601 92 601 69 601C46 601 23 601 11.5 601L0 601Z" fill="#ff0035"></path></svg>